<svg width="102" height="105" viewBox="0 0 102 105" fill="none" xmlns="http://www.w3.org/2000/svg">
<g filter="url(#filter0_d_6_420)">
<rect x="21" y="7" width="59.625" height="63" rx="14" fill="#A783F8"/>
</g>
<path d="M55.7071 26.0061C53.8806 26.1022 52.1502 26.7751 50.9005 28.0248L50.0354 28.89C51.4773 28.89 52.8232 29.5629 53.6883 30.7165C54.2651 31.3894 55.1303 31.7739 56.0916 31.7739C57.9181 31.7739 59.36 30.2358 59.0716 28.4093C58.7832 26.9674 57.3413 25.9099 55.7071 26.0061Z" stroke="#282828" stroke-width="1.2" stroke-miterlimit="10" stroke-linecap="round" stroke-linejoin="round"/>
<path d="M40.8065 51C43.4611 51 45.613 48.848 45.613 46.1935C45.613 43.5389 43.4611 41.387 40.8065 41.387C38.152 41.387 36 43.5389 36 46.1935C36 48.848 38.152 51 40.8065 51Z" stroke="#282828" stroke-width="1.2" stroke-miterlimit="10" stroke-linecap="round" stroke-linejoin="round"/>
<path d="M60.033 51C62.6876 51 64.8396 48.848 64.8396 46.1935C64.8396 43.5389 62.6876 41.387 60.033 41.387C57.3785 41.387 55.2265 43.5389 55.2265 46.1935C55.2265 48.848 57.3785 51 60.033 51Z" stroke="#282828" stroke-width="1.2" stroke-miterlimit="10" stroke-linecap="round" stroke-linejoin="round"/>
<path d="M60.0326 36.5804H55.2261L52.1499 33.5043C51.1886 32.543 49.5544 32.4468 48.497 33.4081L45.1324 36.292C44.3634 36.965 44.4595 38.1185 45.3247 38.6953L51.3809 42.3483L49.4583 48.1161" stroke="#282828" stroke-width="1.2" stroke-miterlimit="10" stroke-linecap="round" stroke-linejoin="round"/>
<path d="M52.8228 34.1771L46.7666 39.4643" stroke="#282828" stroke-width="1.2" stroke-miterlimit="10" stroke-linecap="round" stroke-linejoin="round"/>
<path d="M41.2683 46.1935C41.2683 46.4482 41.0617 46.6548 40.807 46.6548C40.5522 46.6548 40.3457 46.4482 40.3457 46.1935C40.3457 45.9387 40.5522 45.7322 40.807 45.7322C41.0617 45.7322 41.2683 45.9387 41.2683 46.1935Z" fill="white" stroke="#282828"/>
<path d="M60.4939 46.1935C60.4939 46.4482 60.2874 46.6548 60.0326 46.6548C59.7778 46.6548 59.5713 46.4482 59.5713 46.1935C59.5713 45.9387 59.7778 45.7322 60.0326 45.7322C60.2874 45.7322 60.4939 45.9387 60.4939 46.1935Z" fill="white" stroke="#282828"/>
<defs>
<filter id="filter0_d_6_420" x="0" y="0" width="101.625" height="105" filterUnits="userSpaceOnUse" color-interpolation-filters="sRGB">
<feFlood flood-opacity="0" result="BackgroundImageFix"/>
<feColorMatrix in="SourceAlpha" type="matrix" values="0 0 0 0 0 0 0 0 0 0 0 0 0 0 0 0 0 0 127 0" result="hardAlpha"/>
<feOffset dy="14"/>
<feGaussianBlur stdDeviation="10.5"/>
<feComposite in2="hardAlpha" operator="out"/>
<feColorMatrix type="matrix" values="0 0 0 0 1 0 0 0 0 0.741176 0 0 0 0 0.34902 0 0 0 0.2 0"/>
<feBlend mode="normal" in2="BackgroundImageFix" result="effect1_dropShadow_6_420"/>
<feBlend mode="normal" in="SourceGraphic" in2="effect1_dropShadow_6_420" result="shape"/>
</filter>
</defs>
</svg>
