<svg width="60" height="63" viewBox="0 0 60 63" fill="none" xmlns="http://www.w3.org/2000/svg">
<rect width="59.625" height="63" rx="14" fill="url(#paint0_linear_6_419)"/>
<path d="M29.7222 44.6C35.3739 44.6 40.0444 40.381 40.0444 35.0714C40.0444 31.627 38.2225 28.13 36.2014 25.2938C34.1677 22.4398 31.8645 20.1616 30.7689 19.1389C30.1769 18.5862 29.2675 18.5862 28.6755 19.1389C27.58 20.1616 25.2767 22.4398 23.243 25.2938C21.222 28.13 19.4 31.627 19.4 35.0714C19.4 40.381 24.0705 44.6 29.7222 44.6Z" stroke="white" stroke-width="1.2"/>
<path d="M29.7222 39.8333C28.9927 39.8333 28.2702 39.6896 27.5962 39.4104C26.9222 39.1312 26.3097 38.722 25.7939 38.2061C25.278 37.6903 24.8688 37.0778 24.5896 36.4038C24.3104 35.7298 24.1667 35.0073 24.1667 34.2778" stroke="white" stroke-width="1.2" stroke-linecap="round"/>
<defs>
<linearGradient id="paint0_linear_6_419" x1="0" y1="0" x2="71.9469" y2="41.7824" gradientUnits="userSpaceOnUse">
<stop stop-color="#A783F8"/>
<stop offset="1" stop-color="#7F45FF"/>
</linearGradient>
</defs>
</svg>
